<svg width="42" height="63" viewBox="0 0 42 63" fill="none" xmlns="http://www.w3.org/2000/svg">
<g clip-path="url(#clip0_7_2)">
<path d="M37.3789 56.1876C26.1929 57.8695 13.8773 54.6526 6.53152 45.6085C2.97324 41.2276 0.72691 36.0196 0.12764 30.399C-0.45492 24.9351 0.99413 19.4706 3.70892 14.7382C6.86903 9.22961 11.5448 4.735 16.3838 0.705856C17.4207 -0.157464 18.9035 -0.310014 19.9193 0.705856C20.8076 1.59414 20.9619 3.37335 19.9193 4.24139C12.7767 10.1886 5.07795 17.8059 4.9971 27.7681C4.91977 37.2968 11.2622 45.7839 19.8971 49.4101C24.9314 51.5243 30.6571 52.177 36.0497 51.3662C37.3832 51.1657 38.7372 51.7009 39.125 53.1123C39.4494 54.2928 38.7222 55.9856 37.3789 56.1876Z" fill="#00E472"/>
<path d="M27.7279 58.2554C31.0995 55.9623 34.4711 53.6692 37.8427 51.3761V55.6935C34.6367 54.3022 31.9381 51.8345 30.1203 48.8637C29.4369 47.7468 29.84 46.0651 31.0172 45.4432C32.2357 44.7994 33.7081 45.1479 34.4376 46.3401C34.629 46.6528 34.8278 46.9599 35.0404 47.2586C35.1857 47.4627 35.2788 47.5783 35.0683 47.3126C35.1924 47.4692 35.3185 47.6241 35.4484 47.776C35.9245 48.3329 36.4423 48.854 36.995 49.3349C37.1206 49.4442 37.2533 49.5457 37.3777 49.656C37.6009 49.8539 37.0415 49.4183 37.4246 49.6934C37.7495 49.9267 38.077 50.1542 38.4174 50.3648C39.0414 50.7509 39.6934 51.0842 40.3663 51.3761C41.1462 51.7146 41.6045 52.7361 41.6045 53.5348C41.6045 54.4631 41.1094 55.1881 40.3663 55.6935C36.9947 57.9866 33.6231 60.2797 30.2515 62.5728C29.1673 63.3102 27.4323 62.8139 26.8311 61.6759C26.1619 60.4093 26.5709 59.0424 27.7279 58.2554Z" fill="#00E472"/>
</g>
<defs>
<clipPath id="clip0_7_2">
<rect width="41.6045" height="62.9212" fill="white" transform="matrix(1 0 0 -1 0 62.9211)"/>
</clipPath>
</defs>
</svg>
